<svg width="18" height="18" viewBox="0 0 18 18" fill="none" xmlns="http://www.w3.org/2000/svg">
<path d="M10.4943 8.99977L17.691 1.80306C18.1038 1.3903 18.1038 0.721485 17.691 0.309603C17.2791 -0.103162 16.6103 -0.103162 16.1976 0.309603L9.00084 7.50632L1.80239 0.309573C1.39048 -0.103191 0.720815 -0.103191 0.308933 0.309573C-0.102978 0.721485 -0.102978 1.3903 0.308933 1.80303L7.50653 8.99977L0.308933 16.1974C-0.102978 16.6093 -0.102978 17.279 0.308933 17.6909C0.515301 17.8973 0.785908 18 1.05566 18C1.32627 18 1.59602 17.8973 1.80239 17.6909L8.99999 10.4933L16.1967 17.6909C16.4031 17.8973 16.6737 18 16.9435 18C17.214 18 17.4846 17.8973 17.6902 17.6909C18.1029 17.2781 18.1029 16.6093 17.6902 16.1974L10.4943 8.99977Z" fill="#454552"/>
</svg>
